<svg width="16" height="18" viewBox="0 0 16 18" fill="none" xmlns="http://www.w3.org/2000/svg">
<path d="M1 4.5H2.55556H15" stroke="white" stroke-width="2" stroke-linecap="round" stroke-linejoin="round"/>
<path d="M14 4.2C14 3.64772 13.5523 3.2 13 3.2C12.4477 3.2 12 3.64772 12 4.2H14ZM3 4.2C3 3.64772 2.55228 3.2 2 3.2C1.44772 3.2 1 3.64772 1 4.2H3ZM3.35714 4.2C3.35714 4.75228 3.80486 5.2 4.35714 5.2C4.90943 5.2 5.35714 4.75228 5.35714 4.2H3.35714ZM9.64286 4.2C9.64286 4.75228 10.0906 5.2 10.6429 5.2C11.1951 5.2 11.6429 4.75228 11.6429 4.2H9.64286ZM12 4.2V15.4H14V4.2H12ZM12 15.4C12 15.7484 11.7273 16 11.4286 16V18C12.8656 18 14 16.8189 14 15.4H12ZM11.4286 16H3.57143V18H11.4286V16ZM3.57143 16C3.27275 16 3 15.7484 3 15.4H1C1 16.8189 2.13436 18 3.57143 18V16ZM3 15.4V4.2H1V15.4H3ZM5.35714 4.2V2.6H3.35714V4.2H5.35714ZM5.35714 2.6C5.35714 2.25157 5.62989 2 5.92857 2V0C4.4915 0 3.35714 1.18112 3.35714 2.6H5.35714ZM5.92857 2H9.07143V0H5.92857V2ZM9.07143 2C9.37011 2 9.64286 2.25157 9.64286 2.6H11.6429C11.6429 1.18112 10.5085 0 9.07143 0V2ZM9.64286 2.6V4.2H11.6429V2.6H9.64286Z" fill="white"/>
</svg>
